<svg width="360" height="300" viewBox="0 0 360 300" fill="none" xmlns="http://www.w3.org/2000/svg">
<g clip-path="url(#clip0_509_268)">
<path d="M169.093 300C247.614 300 311.268 296.756 311.268 292.754C311.268 288.751 247.614 285.507 169.093 285.507C90.572 285.507 26.918 288.751 26.918 292.754C26.918 296.756 90.572 300 169.093 300Z" fill="#F2F2F2"/>
<path d="M252.157 69.625H250.542V25.5243C250.542 18.7549 247.844 12.2626 243.042 7.47591C238.239 2.68917 231.726 7.47399e-06 224.934 0H131.192C124.401 -1.28125e-05 117.887 2.68913 113.085 7.47585C108.282 12.2626 105.584 18.7548 105.584 25.5242V267.464C105.584 274.234 108.282 280.726 113.085 285.513C117.887 290.299 124.401 292.989 131.192 292.989H224.934C231.726 292.989 238.239 290.299 243.042 285.513C247.844 280.726 250.542 274.234 250.542 267.464V101.017H252.157L252.157 69.625Z" fill="#C73537"/>
<path d="M245.092 25.7024V267.286C245.092 272.342 243.077 277.19 239.491 280.765C235.904 284.34 231.04 286.348 225.967 286.348H131.776C126.704 286.348 121.84 284.34 118.253 280.765C114.666 277.19 112.651 272.342 112.651 267.286V25.7024C112.651 20.6468 114.666 15.7984 118.253 12.2235C121.84 8.64871 126.704 6.64035 131.776 6.64026H143.203C142.641 8.01546 142.428 9.50711 142.58 10.984C142.733 12.4609 143.247 13.8778 144.078 15.11C144.909 16.3422 146.031 17.352 147.346 18.0506C148.66 18.7492 150.127 19.1151 151.616 19.1162H205.32C206.809 19.1151 208.276 18.7492 209.59 18.0506C210.905 17.352 212.027 16.3422 212.858 15.11C213.689 13.8778 214.203 12.4609 214.356 10.984C214.508 9.50711 214.295 8.01546 213.733 6.64026H225.967C231.04 6.64035 235.904 8.64871 239.491 12.2235C243.077 15.7984 245.092 20.6468 245.092 25.7024Z" fill="white"/>
<path d="M214.748 129.872C214.122 130.198 213.485 130.507 212.838 130.798C212.248 131.064 211.649 131.314 211.041 131.547C210.818 131.632 210.592 131.716 210.366 131.801C208.578 132.447 206.741 132.952 204.873 133.31C203.948 133.492 203.011 133.634 202.062 133.737C201.278 133.826 200.487 133.889 199.687 133.926C199.117 133.954 198.548 133.967 197.974 133.967C195.703 133.968 193.436 133.756 191.205 133.335C190.623 133.23 190.054 133.105 189.484 132.968C186.729 132.31 184.062 131.329 181.539 130.045C181.313 129.933 181.087 129.812 180.861 129.695C180.525 129.518 180.198 129.333 179.871 129.14C180.028 128.922 180.198 128.709 180.372 128.5C182.262 126.165 184.624 124.254 187.305 122.89C189.986 121.526 192.925 120.741 195.93 120.585C198.936 120.43 201.941 120.907 204.749 121.986C207.557 123.065 210.105 124.722 212.228 126.849C212.965 127.586 213.648 128.374 214.272 129.208C214.437 129.425 214.595 129.647 214.748 129.872Z" fill="#C73537"/>
<path d="M198.78 112.188C208.575 112.188 216.516 104.274 216.516 94.511C216.516 84.7482 208.575 76.8339 198.78 76.8339C188.985 76.8339 181.045 84.7482 181.045 94.511C181.045 104.274 188.985 112.188 198.78 112.188Z" fill="#2F2E41"/>
<path d="M203.497 112.213C209.894 108.728 212.245 100.734 208.748 94.358C205.251 87.9822 197.231 85.639 190.834 89.1244C184.438 92.6097 182.087 100.604 185.583 106.979C189.08 113.355 197.101 115.698 203.497 112.213Z" fill="#85454E"/>
<path d="M211.036 92.3932C208.019 94.4654 204.439 95.5682 200.776 95.5536C202.082 96.4567 203.57 97.0668 205.136 97.3417C200.265 98.3831 195.231 98.4113 190.349 97.4245C189.264 97.2511 188.217 96.8926 187.254 96.3648C186.774 96.0977 186.356 95.7328 186.026 95.294C185.697 94.8552 185.464 94.3522 185.343 93.8179C185.019 91.9706 186.463 90.2923 187.963 89.1612C190.261 87.4559 192.911 86.281 195.72 85.7214C198.529 85.1619 201.428 85.2317 204.207 85.9259C206.022 86.3934 207.84 87.1833 209.018 88.6357C210.197 90.0881 210.546 92.3273 209.423 93.8229L211.036 92.3932Z" fill="#2F2E41"/>
<path d="M197.974 61.5022C190.046 61.501 182.335 64.0834 176.016 68.8558C169.698 73.6282 165.118 80.3289 162.975 87.9365C160.832 95.5441 161.244 103.641 164.146 110.994C167.049 118.347 172.285 124.553 179.055 128.665L179.289 128.801C179.483 128.918 179.677 129.031 179.871 129.14C180.198 129.333 180.525 129.518 180.86 129.695C181.086 129.812 181.313 129.933 181.539 130.045C184.062 131.329 186.729 132.31 189.484 132.968C190.053 133.105 190.622 133.23 191.204 133.334C193.436 133.756 195.702 133.967 197.974 133.967C198.547 133.967 199.117 133.954 199.686 133.926C200.486 133.89 201.278 133.827 202.061 133.737C203.01 133.632 203.948 133.49 204.872 133.31C206.741 132.952 208.577 132.447 210.366 131.801C210.592 131.716 210.818 131.632 211.04 131.547C211.65 131.314 212.249 131.064 212.837 130.798C213.484 130.508 214.121 130.2 214.748 129.872C221.036 126.59 226.233 121.56 229.709 115.392C229.725 115.359 229.745 115.327 229.761 115.295C231.616 111.978 232.931 108.39 233.659 104.663C234.681 99.4161 234.526 94.0092 233.206 88.8291C231.885 83.6491 229.432 78.824 226.022 74.6995C222.612 70.575 218.329 67.2531 213.48 64.9715C208.631 62.6899 203.336 61.5052 197.974 61.5022H197.974ZM229.099 114.824C229.066 114.88 229.038 114.937 229.006 114.989C225.599 121.066 220.475 126.011 214.271 129.208C213.653 129.53 213.024 129.832 212.385 130.114C211.856 130.351 211.315 130.577 210.769 130.786C210.539 130.875 210.305 130.963 210.071 131.044C208.526 131.606 206.942 132.058 205.333 132.396C204.139 132.65 202.932 132.839 201.718 132.964C200.971 133.045 200.211 133.101 199.448 133.129C198.959 133.149 198.466 133.161 197.974 133.161C195.776 133.164 193.582 132.96 191.422 132.553C190.108 132.312 188.81 131.995 187.533 131.603C185.587 131.004 183.697 130.241 181.882 129.321C181.672 129.212 181.462 129.103 181.256 128.991C180.961 128.834 180.662 128.673 180.371 128.5C180.153 128.379 179.935 128.25 179.721 128.121C179.596 128.049 179.471 127.972 179.345 127.896C173.41 124.262 168.675 118.972 165.729 112.682C162.782 106.391 161.753 99.3761 162.77 92.5078C163.787 85.6396 166.804 79.22 171.448 74.0456C176.092 68.8711 182.158 65.1694 188.894 63.3998C195.629 61.6302 202.737 61.8705 209.337 64.091C215.937 66.3114 221.737 70.4142 226.019 75.8904C230.3 81.3666 232.874 87.9752 233.422 94.8963C233.969 101.817 232.466 108.747 229.099 114.824H229.099Z" fill="#3F3D56"/>
<path d="M189.799 77.0777C189.608 75.0777 187.15 73.8464 185.227 74.4505C183.305 75.0547 182.043 76.9839 181.662 78.9566C181.478 79.7874 181.461 80.6462 181.611 81.4836C181.761 82.3211 182.075 83.1208 182.536 83.8369C183.508 85.2307 185.293 86.1006 186.959 85.7467C188.86 85.3428 190.177 83.4925 190.554 81.5917C190.931 79.6909 190.557 77.7312 190.183 75.8298L189.799 77.0777Z" fill="#2F2E41"/>
<path d="M216.854 79.9349C216.663 77.9349 214.205 76.7036 212.282 77.3077C210.36 77.9118 209.098 79.8411 208.716 81.8138C208.533 82.6446 208.515 83.5034 208.666 84.3408C208.816 85.1783 209.13 85.9779 209.591 86.694C210.562 88.0879 212.348 88.9577 214.014 88.6039C215.915 88.2 217.232 86.3496 217.609 84.4489C217.986 82.5481 217.612 80.5884 217.238 78.687L216.854 79.9349Z" fill="#2F2E41"/>
<path d="M135.141 112.215C134.889 112.214 134.64 112.162 134.41 112.06C134.18 111.959 133.974 111.811 133.805 111.625L113.762 89.8321C113.535 89.5854 113.259 89.3883 112.951 89.2534C112.643 89.1184 112.311 89.0486 111.975 89.0482H6.06235C4.45507 89.0464 2.91413 88.4092 1.77761 87.2764C0.641092 86.1436 0.00180457 84.6078 0 83.0058V44.9368C0.0018035 43.3348 0.641092 41.799 1.77761 40.6662C2.91413 39.5334 4.45507 38.8962 6.06235 38.8944H143.28C144.887 38.8962 146.428 39.5334 147.564 40.6662C148.701 41.799 149.34 43.3348 149.342 44.9368V83.0058C149.34 84.6078 148.701 86.1436 147.564 87.2764C146.428 88.4092 144.887 89.0464 143.28 89.0482H139.389C138.746 89.0489 138.13 89.3039 137.675 89.7571C137.221 90.2103 136.965 90.8247 136.964 91.4656V110.4C136.966 110.766 136.856 111.123 136.649 111.425C136.442 111.727 136.147 111.958 135.805 112.089C135.593 112.172 135.368 112.214 135.141 112.215Z" fill="white"/>
<path d="M135.141 112.215C134.889 112.214 134.64 112.162 134.41 112.06C134.18 111.959 133.974 111.811 133.805 111.625L113.762 89.8321C113.535 89.5854 113.259 89.3883 112.951 89.2534C112.643 89.1184 112.311 89.0486 111.975 89.0482H6.06235C4.45507 89.0464 2.91413 88.4092 1.77761 87.2764C0.641092 86.1436 0.00180457 84.6078 0 83.0058V44.9368C0.0018035 43.3348 0.641092 41.799 1.77761 40.6662C2.91413 39.5334 4.45507 38.8962 6.06235 38.8944H143.28C144.887 38.8962 146.428 39.5334 147.564 40.6662C148.701 41.799 149.34 43.3348 149.342 44.9368V83.0058C149.34 84.6078 148.701 86.1436 147.564 87.2764C146.428 88.4092 144.887 89.0464 143.28 89.0482H139.389C138.746 89.0489 138.13 89.3039 137.675 89.7571C137.221 90.2103 136.965 90.8247 136.964 91.4656V110.4C136.966 110.766 136.856 111.123 136.649 111.425C136.442 111.727 136.147 111.958 135.805 112.089C135.593 112.172 135.368 112.214 135.141 112.215ZM6.06235 39.6996C4.66924 39.7011 3.33364 40.2534 2.34856 41.2353C1.36349 42.2171 0.809386 43.5483 0.807813 44.9368V83.0058C0.809388 84.3943 1.36349 85.7255 2.34857 86.7073C3.33365 87.6892 4.66924 88.2415 6.06235 88.243H111.975C112.423 88.2435 112.866 88.3367 113.276 88.5165C113.686 88.6964 114.055 88.9591 114.358 89.288L134.4 111.081C134.538 111.231 134.718 111.335 134.916 111.381C135.115 111.427 135.322 111.413 135.512 111.339C135.702 111.266 135.865 111.136 135.98 110.969C136.095 110.801 136.156 110.603 136.156 110.4V91.4656C136.157 90.6113 136.498 89.7921 137.104 89.188C137.71 88.5838 138.532 88.244 139.389 88.243H143.28C144.673 88.2415 146.008 87.6892 146.993 86.7073C147.978 85.7255 148.533 84.3943 148.534 83.0058V44.9368C148.533 43.5483 147.978 42.2171 146.993 41.2353C146.008 40.2534 144.673 39.7011 143.28 39.6996H6.06235Z" fill="#3F3D56"/>
<path d="M14.8702 55.6876C17.8 55.6876 20.175 53.3204 20.175 50.4003C20.175 47.4801 17.8 45.1129 14.8702 45.1129C11.9405 45.1129 9.56543 47.4801 9.56543 50.4003C9.56543 53.3204 11.9405 55.6876 14.8702 55.6876Z" fill="#C73537"/>
<path d="M137.091 79.6571H12.2515C11.8797 79.6575 11.5115 79.5849 11.1678 79.4434C10.8242 79.3019 10.5119 79.0942 10.2488 78.8323C9.98573 78.5704 9.77702 78.2594 9.63463 77.9171C9.49224 77.5747 9.41895 77.2077 9.41895 76.8371C9.41895 76.4665 9.49224 76.0996 9.63463 75.7572C9.77702 75.4149 9.98573 75.1039 10.2488 74.842C10.5119 74.5801 10.8242 74.3724 11.1678 74.2309C11.5115 74.0894 11.8797 74.0168 12.2515 74.0172H137.091C137.841 74.0181 138.56 74.3156 139.089 74.8443C139.619 75.3731 139.917 76.0898 139.917 76.8371C139.917 77.5844 139.619 78.3012 139.089 78.8299C138.56 79.3587 137.841 79.6562 137.091 79.6571Z" fill="#E6E6E6"/>
<path d="M96.4209 67.6723H12.2515C11.8797 67.6728 11.5115 67.6002 11.1678 67.4586C10.8242 67.3171 10.5119 67.1095 10.2488 66.8476C9.98573 66.5857 9.77702 66.2747 9.63463 65.9323C9.49224 65.59 9.41895 65.223 9.41895 64.8524C9.41895 64.4818 9.49224 64.1148 9.63463 63.7725C9.77702 63.4301 9.98573 63.1191 10.2488 62.8572C10.5119 62.5953 10.8242 62.3877 11.1678 62.2462C11.5115 62.1046 11.8797 62.032 12.2515 62.0325H96.4209C97.1713 62.0325 97.8909 62.3296 98.4215 62.8584C98.9521 63.3873 99.2501 64.1045 99.2501 64.8524C99.2501 65.6003 98.9521 66.3176 98.4215 66.8464C97.8909 67.3752 97.1713 67.6723 96.4209 67.6723Z" fill="#E6E6E6"/>
<path d="M224.195 241.317C223.853 241.186 223.559 240.955 223.352 240.653C223.144 240.351 223.034 239.994 223.036 239.628V220.694C223.035 220.053 222.78 219.438 222.325 218.985C221.87 218.532 221.254 218.277 220.611 218.276H216.721C215.113 218.274 213.572 217.637 212.436 216.504C211.299 215.372 210.66 213.836 210.658 212.234V174.165C210.66 172.563 211.299 171.027 212.436 169.894C213.572 168.761 215.113 168.124 216.721 168.122H353.938C355.545 168.124 357.086 168.761 358.223 169.894C359.359 171.027 359.998 172.563 360 174.165V212.234C359.998 213.836 359.359 215.372 358.223 216.504C357.086 217.637 355.545 218.274 353.938 218.276H248.026C247.689 218.277 247.357 218.346 247.049 218.481C246.742 218.616 246.465 218.813 246.238 219.06L226.195 240.853C226.026 241.039 225.82 241.187 225.59 241.288C225.36 241.39 225.111 241.442 224.86 241.443C224.632 241.442 224.407 241.4 224.195 241.317Z" fill="white"/>
<path d="M224.195 241.317C223.853 241.186 223.559 240.955 223.352 240.653C223.144 240.351 223.034 239.994 223.036 239.628V220.694C223.035 220.053 222.78 219.438 222.325 218.985C221.87 218.532 221.254 218.277 220.611 218.276H216.721C215.113 218.274 213.572 217.637 212.436 216.504C211.299 215.372 210.66 213.836 210.658 212.234V174.165C210.66 172.563 211.299 171.027 212.436 169.894C213.572 168.761 215.113 168.124 216.721 168.122H353.938C355.545 168.124 357.086 168.761 358.223 169.894C359.359 171.027 359.998 172.563 360 174.165V212.234C359.998 213.836 359.359 215.372 358.223 216.504C357.086 217.637 355.545 218.274 353.938 218.276H248.026C247.689 218.277 247.357 218.346 247.049 218.481C246.742 218.616 246.465 218.813 246.238 219.06L226.195 240.853C226.026 241.039 225.82 241.187 225.59 241.288C225.36 241.39 225.111 241.442 224.86 241.443C224.632 241.442 224.407 241.4 224.195 241.317ZM216.721 168.928C215.327 168.929 213.992 169.481 213.007 170.463C212.022 171.445 211.468 172.776 211.466 174.165V212.234C211.468 213.622 212.022 214.954 213.007 215.935C213.992 216.917 215.327 217.469 216.721 217.471H220.611C221.468 217.472 222.29 217.812 222.896 218.416C223.502 219.02 223.843 219.839 223.844 220.694V239.628C223.844 239.831 223.905 240.029 224.02 240.197C224.135 240.365 224.298 240.494 224.488 240.567C224.678 240.641 224.886 240.655 225.084 240.609C225.282 240.563 225.462 240.459 225.6 240.309L245.642 218.516C245.946 218.187 246.314 217.924 246.724 217.745C247.134 217.565 247.577 217.472 248.026 217.471H353.938C355.331 217.469 356.667 216.917 357.652 215.935C358.637 214.954 359.191 213.622 359.192 212.234V174.165C359.191 172.776 358.637 171.445 357.652 170.463C356.667 169.481 355.331 168.929 353.938 168.928H216.721Z" fill="#3F3D56"/>
<path d="M181.426 253.106C175.799 256.697 169.279 258.656 162.598 258.762C155.917 258.868 149.338 257.117 143.6 253.706C144.609 251.833 145.888 250.117 147.396 248.613C149.723 246.283 152.555 244.515 155.675 243.446C158.794 242.377 162.118 242.034 165.391 242.445C168.664 242.856 171.798 244.009 174.554 245.816C177.31 247.623 179.614 250.036 181.288 252.868C181.333 252.945 181.381 253.025 181.426 253.106Z" fill="#C73537"/>
<path d="M160.933 233.854C170.793 233.854 178.787 225.887 178.787 216.06C178.787 206.232 170.793 198.265 160.933 198.265C151.073 198.265 143.08 206.232 143.08 216.06C143.08 225.887 151.073 233.854 160.933 233.854Z" fill="#2F2E41"/>
<path d="M174.218 228.611C177.738 222.193 175.371 214.146 168.932 210.637C162.493 207.129 154.419 209.488 150.899 215.906C147.379 222.324 149.745 230.371 156.185 233.88C162.624 237.388 170.698 235.029 174.218 228.611Z" fill="#FFB8B8"/>
<path d="M148.597 213.928C151.633 216.014 155.237 217.124 158.925 217.109C157.609 218.018 156.112 218.633 154.535 218.909C159.439 219.958 164.506 219.986 169.421 218.993C170.513 218.818 171.567 218.457 172.537 217.926C173.02 217.657 173.441 217.29 173.772 216.848C174.104 216.406 174.338 215.9 174.46 215.362C174.787 213.503 173.333 211.813 171.822 210.674C169.509 208.958 166.842 207.775 164.014 207.212C161.186 206.649 158.268 206.719 155.471 207.418C153.644 207.888 151.814 208.683 150.628 210.145C149.441 211.608 149.09 213.862 150.22 215.367L148.597 213.928Z" fill="#2F2E41"/>
<path d="M162.026 259.169C153.283 259.166 144.833 256.021 138.228 250.311C131.622 244.602 127.304 236.709 126.064 228.082C124.825 219.456 126.748 210.673 131.48 203.344C136.212 196.016 143.436 190.634 151.828 188.186C160.219 185.737 169.215 186.387 177.165 190.014C185.115 193.642 191.486 200.005 195.11 207.936C198.734 215.867 199.367 224.835 196.894 233.194C194.42 241.553 189.006 248.743 181.644 253.445C175.79 257.186 168.981 259.173 162.026 259.169ZM162.026 187.51C154.996 187.509 148.122 189.586 142.276 193.479C136.43 197.372 131.873 202.906 129.182 209.38C126.491 215.854 125.787 222.978 127.159 229.851C128.53 236.724 131.916 243.038 136.887 247.993C141.859 252.948 148.193 256.323 155.089 257.69C161.985 259.057 169.132 258.355 175.628 255.673C182.123 252.991 187.675 248.449 191.581 242.622C195.486 236.795 197.571 229.944 197.57 222.937C197.56 213.544 193.811 204.539 187.148 197.898C180.484 191.256 171.45 187.52 162.026 187.51Z" fill="#3F3D56"/>
<path d="M227.729 184.513C230.658 184.513 233.033 182.146 233.033 179.226C233.033 176.306 230.658 173.938 227.729 173.938C224.799 173.938 222.424 176.306 222.424 179.226C222.424 182.146 224.799 184.513 227.729 184.513Z" fill="#C73537"/>
<path d="M349.949 208.483H225.11C224.738 208.483 224.37 208.41 224.026 208.269C223.683 208.127 223.37 207.92 223.107 207.658C222.844 207.396 222.635 207.085 222.493 206.742C222.351 206.4 222.277 206.033 222.277 205.663C222.277 205.292 222.351 204.925 222.493 204.583C222.635 204.24 222.844 203.929 223.107 203.667C223.37 203.405 223.683 203.198 224.026 203.056C224.37 202.915 224.738 202.842 225.11 202.843H349.949C350.7 202.843 351.419 203.14 351.95 203.669C352.481 204.197 352.779 204.915 352.779 205.663C352.779 206.41 352.481 207.128 351.95 207.657C351.419 208.185 350.7 208.483 349.949 208.483Z" fill="#E6E6E6"/>
<path d="M309.279 196.498H225.11C224.738 196.498 224.37 196.426 224.026 196.284C223.683 196.143 223.37 195.935 223.107 195.673C222.844 195.411 222.635 195.1 222.493 194.758C222.351 194.415 222.277 194.048 222.277 193.678C222.277 193.307 222.351 192.94 222.493 192.598C222.635 192.256 222.844 191.945 223.107 191.683C223.37 191.421 223.683 191.213 224.026 191.072C224.37 190.93 224.738 190.858 225.11 190.858H309.279C310.029 190.859 310.748 191.156 311.278 191.685C311.808 192.214 312.105 192.931 312.105 193.678C312.105 194.425 311.808 195.142 311.278 195.671C310.748 196.199 310.029 196.497 309.279 196.498Z" fill="#E6E6E6"/>
<path d="M224.024 244.922C229.49 244.922 233.922 244.431 233.922 243.827C233.922 243.222 229.49 242.732 224.024 242.732C218.558 242.732 214.127 243.222 214.127 243.827C214.127 244.431 218.558 244.922 224.024 244.922Z" fill="#F2F2F2"/>
<path d="M135.568 116.096C141.034 116.096 145.466 115.606 145.466 115.001C145.466 114.397 141.034 113.906 135.568 113.906C130.102 113.906 125.671 114.397 125.671 115.001C125.671 115.606 130.102 116.096 135.568 116.096Z" fill="#F2F2F2"/>
</g>
<defs>
<clipPath id="clip0_509_268">
<rect width="360" height="300" fill="white"/>
</clipPath>
</defs>
</svg>
